<svg width="100" height="101" viewBox="0 0 100 101" fill="none" xmlns="http://www.w3.org/2000/svg">
<mask id="mask0_54_316" style="mask-type:luminance" maskUnits="userSpaceOnUse" x="0" y="0" width="100" height="27">
<path d="M0 0.384644H100V26.3859H0V0.384644Z" fill="white"/>
</mask>
<g mask="url(#mask0_54_316)">
<path d="M98.0008 26.3859H1.99922C0.896092 26.3859 0 25.4898 0 24.3851V22.9568C0 22.1578 0.475544 21.4332 1.2115 21.1194L49.2123 0.548056C49.7153 0.331312 50.2847 0.331312 50.7877 0.548056L98.7885 21.1194C99.5245 21.4332 100 22.1578 100 22.9568V24.3851C100 25.4898 99.1055 26.3859 98.0008 26.3859Z" fill="#F3F3F3"/>
</g>
<mask id="mask1_54_316" style="mask-type:luminance" maskUnits="userSpaceOnUse" x="0" y="90" width="100" height="11">
<path d="M0 90.1539H100V100.385H0V90.1539Z" fill="white"/>
</mask>
<g mask="url(#mask1_54_316)">
<path d="M100 100.385H0V96.3845C0 93.0768 2.55402 90.3853 5.69196 90.3853H94.308C97.4476 90.3853 100 93.0768 100 96.3845V100.385Z" fill="#F3F3F3"/>
</g>
<path d="M4.35742 30.3859C5.1597 32.7086 7.29317 34.3859 9.81808 34.3859H90.1817C92.7082 34.3859 94.8401 32.7086 95.6424 30.3859H4.35742Z" fill="#F3F3F3"/>
<path d="M88.309 80.3859H11.6915C8.55354 80.3859 5.99951 83.0774 5.99951 86.3852H94.0009C94.0009 83.0774 91.4485 80.3859 88.309 80.3859Z" fill="#F3F3F3"/>
<path d="M78.0005 34.386H87.9998V76.3859H78.0005V34.386Z" fill="#F3F3F3"/>
<path d="M55.9995 34.386H66.0005V76.3859H55.9995V34.386Z" fill="#F3F3F3"/>
<path d="M33.9995 34.386H44.0005V76.3859H33.9995V34.386Z" fill="#F3F3F3"/>
<path d="M12 34.386H21.9994V76.3859H12V34.386Z" fill="#F3F3F3"/>
</svg>
