<svg width="130" height="91" viewBox="0 0 130 91" fill="none" xmlns="http://www.w3.org/2000/svg">
<mask id="mask0_54_310" style="mask-type:luminance" maskUnits="userSpaceOnUse" x="0" y="0" width="130" height="91">
<path d="M0 0H130V90.1136H0V0Z" fill="white"/>
</mask>
<g mask="url(#mask0_54_310)">
<path d="M126.902 34.6498C126.885 34.3957 126.82 34.1439 126.72 33.9108C124.633 23.578 115.118 17.1782 102.867 17.1782C98.4823 17.1782 92.2307 15.9146 87.3483 23.9929H65.1128C65.4426 19.9573 66.5495 18.0898 67.8089 16.4159C69.6629 13.9516 71.7642 10.9114 71.7642 2.73515C71.7642 1.33864 70.5574 0.0866699 69.0607 0.0866699C67.564 0.0866699 66.3546 1.15212 66.3546 2.54631C66.3546 9.12788 64.9804 11.4243 63.3787 13.5529C61.8246 15.6209 60.0805 15.9193 59.6832 23.9929H42.6549C37.7725 15.9193 31.5209 17.1782 27.1358 17.1782C14.9423 17.1782 5.08764 24.4942 3.15368 35.5451C2.23168 46.7382 0.090332 72.7404 0.090332 73.5844C0.090332 82.4181 7.67125 90.1047 16.3166 90.1047C24.0499 90.1047 29.0847 87.4166 31.281 82.1966C31.311 82.1476 31.3435 82.0823 31.3635 82.031L36.9505 69.8378C39.2193 71.4441 42.3176 73.4188 46.0681 73.4188C52.737 73.4188 58.9311 68.404 61.3049 64.366H68.7284C71.0546 68.404 77.1139 72.6961 83.9477 72.6961C87.5982 72.6961 90.5891 71.7915 93.0078 70.4579L98.6722 82.1709C98.6947 82.2152 98.7197 82.1872 98.7422 82.2409C100.941 87.4539 105.973 90.0651 113.702 90.0651C122.492 90.0651 129.93 82.7818 129.93 74.1859C129.913 73.3489 127.809 46.2532 126.902 34.6498ZM32.5454 48.2116H26.0539V53.2591C26.0539 54.6603 25.3892 55.7817 23.89 55.7817C22.3933 55.7817 21.7262 54.6603 21.7262 53.2591V48.2116H16.3166C14.8199 48.2116 13.613 47.5938 13.613 46.1926C13.613 44.7961 14.8199 44.1736 16.3166 44.1736H21.7262V38.1166C21.7262 36.7201 22.3933 35.594 23.89 35.594C25.3892 35.594 26.0539 36.7248 26.0539 38.1166V44.1736H32.5454C34.042 44.1736 35.2514 44.7961 35.2514 46.1926C35.2514 47.5938 34.042 48.2116 32.5454 48.2116ZM59.5933 48.2116H54.1837C52.6845 48.2116 51.4777 47.5938 51.4777 46.1926C51.4777 44.7961 52.6845 44.1736 54.1837 44.1736H59.5933C61.09 44.1736 62.2968 44.7961 62.2968 46.1926C62.2968 47.5938 61.09 48.2116 59.5933 48.2116ZM75.8195 48.2116H70.41C68.9133 48.2116 67.7064 47.5938 67.7064 46.1926C67.7064 44.7961 68.9133 44.1736 70.41 44.1736H75.8195C77.3162 44.1736 78.5256 44.7961 78.5256 46.1926C78.5256 47.5938 77.3162 48.2116 75.8195 48.2116ZM92.0483 58.3066C89.0674 58.3066 86.6387 56.0452 86.6387 53.2591C86.6387 50.4801 89.0674 48.2116 92.0483 48.2116C95.0342 48.2116 97.4579 50.4801 97.4579 53.2591C97.4579 56.0475 95.0342 58.3066 92.0483 58.3066ZM92.0483 43.1641C89.0674 43.1641 86.6387 40.9073 86.6387 38.1166C86.6387 35.3352 89.0674 33.0714 92.0483 33.0714C95.0342 33.0714 97.4579 35.3352 97.4579 38.1166C97.4579 40.9073 95.0342 43.1641 92.0483 43.1641ZM108.275 58.3066C105.294 58.3066 102.867 56.0452 102.867 53.2591C102.867 50.4801 105.294 48.2116 108.275 48.2116C111.263 48.2116 113.684 50.4801 113.684 53.2591C113.684 56.0475 111.263 58.3066 108.275 58.3066ZM108.275 43.1641C105.294 43.1641 102.867 40.9073 102.867 38.1166C102.867 35.3352 105.294 33.0714 108.275 33.0714C111.263 33.0714 113.684 35.3352 113.684 38.1166C113.684 40.9073 111.263 43.1641 108.275 43.1641Z" fill="#F3F3F3"/>
</g>
</svg>
