<svg width="61" height="75" viewBox="0 0 61 75" fill="none" xmlns="http://www.w3.org/2000/svg">
<mask id="mask0_54_404" style="mask-type:luminance" maskUnits="userSpaceOnUse" x="0" y="0" width="61" height="75">
<path d="M0 0H60.8654V75H0V0Z" fill="white"/>
</mask>
<g mask="url(#mask0_54_404)">
<path d="M53.8416 75H7.02374C6.79387 75 6.564 74.988 6.33564 74.9654C6.10577 74.9429 5.87891 74.9084 5.65355 74.8633C5.42818 74.8182 5.20583 74.7626 4.98498 74.695C4.76562 74.6274 4.54928 74.5508 4.33744 74.4621C4.1241 74.3735 3.91677 74.2758 3.71394 74.1677C3.51112 74.058 3.3143 73.9408 3.1235 73.8116C2.93269 73.6839 2.7479 73.5472 2.57061 73.4014C2.39183 73.2557 2.22206 73.101 2.0598 72.9372C1.89754 72.7749 1.74279 72.6052 1.59706 72.4264C1.45132 72.2491 1.3146 72.0643 1.1869 71.8735C1.05919 71.6812 0.940505 71.4844 0.832332 71.2816C0.722656 71.0787 0.625 70.8699 0.536358 70.6581C0.449219 70.4447 0.371094 70.2284 0.304988 70.009C0.23738 69.7882 0.181791 69.5658 0.136719 69.3389C0.0916468 69.1136 0.0570914 68.8867 0.0345553 68.6569C0.0120195 68.4285 0 68.1986 0 67.9688V7.03125C0 6.80138 0.0120195 6.57151 0.0345553 6.34165C0.0570914 6.11328 0.0916468 5.88492 0.136719 5.65956C0.181791 5.4342 0.23738 5.21034 0.304988 4.99099C0.371094 4.77013 0.449219 4.55379 0.536358 4.34195C0.625 4.12861 0.722656 3.92127 0.832332 3.71845C0.940505 3.51562 1.05919 3.31731 1.1869 3.1265C1.3146 2.93419 1.45132 2.7509 1.59706 2.57212C1.74279 2.39483 1.89754 2.22356 2.0598 2.0613C2.22206 1.89904 2.39183 1.74429 2.57061 1.59856C2.7479 1.45132 2.93269 1.3146 3.1235 1.1869C3.3143 1.05919 3.51112 0.940505 3.71394 0.832332C3.91677 0.724159 4.1241 0.625 4.33744 0.536358C4.54928 0.449219 4.76562 0.371094 4.98498 0.303486C5.20583 0.23738 5.42818 0.181791 5.65355 0.136719C5.87891 0.0901441 6.10577 0.0570914 6.33564 0.0345553C6.564 0.0120195 6.79387 0 7.02374 0H53.8416C54.0715 0 54.3014 0.0120195 54.5297 0.0345553C54.7596 0.0570914 54.9865 0.0901441 55.2118 0.136719C55.4372 0.181791 55.6596 0.23738 55.8804 0.303486C56.0998 0.371094 56.3161 0.449219 56.5279 0.536358C56.7413 0.625 56.9486 0.724159 57.1514 0.832332C57.3543 0.940505 57.5511 1.05919 57.7419 1.1869C57.9327 1.3146 58.1175 1.45132 58.2948 1.59856C58.4736 1.74429 58.6433 1.89904 58.8056 2.0613C58.9678 2.22356 59.1226 2.39483 59.2683 2.57212C59.4141 2.7509 59.5508 2.93419 59.68 3.1265C59.8077 3.31731 59.9249 3.51562 60.0331 3.71845C60.1427 3.92127 60.2404 4.12861 60.329 4.34195C60.4162 4.55379 60.4943 4.77013 60.5604 4.99099C60.628 5.21034 60.6836 5.4342 60.7287 5.65956C60.7737 5.88492 60.8083 6.11328 60.8308 6.34165C60.8534 6.57151 60.8654 6.80138 60.8654 7.03125V67.9688C60.8654 68.1986 60.8534 68.4285 60.8308 68.6569C60.8083 68.8867 60.7737 69.1136 60.7287 69.3389C60.6836 69.5658 60.628 69.7882 60.5604 70.009C60.4943 70.2284 60.4162 70.4447 60.329 70.6581C60.2404 70.8699 60.1427 71.0787 60.0331 71.2816C59.9249 71.4844 59.8077 71.6812 59.68 71.8735C59.5508 72.0643 59.4141 72.2491 59.2683 72.4264C59.1226 72.6052 58.9678 72.7749 58.8056 72.9372C58.6433 73.101 58.4736 73.2557 58.2948 73.4014C58.1175 73.5472 57.9327 73.6839 57.7419 73.8116C57.5511 73.9408 57.3543 74.058 57.1514 74.1677C56.9486 74.2758 56.7413 74.3735 56.5279 74.4621C56.3161 74.5508 56.0998 74.6274 55.8804 74.695C55.6596 74.7626 55.4372 74.8182 55.2118 74.8633C54.9865 74.9084 54.7596 74.9429 54.5297 74.9654C54.3014 74.988 54.0715 75 53.8416 75ZM7.02374 4.6875C6.86899 4.6875 6.71725 4.70252 6.56701 4.73257C6.41677 4.76262 6.26953 4.80769 6.1283 4.86629C5.98558 4.92488 5.85036 4.997 5.72266 5.08263C5.59495 5.16827 5.47776 5.26593 5.36809 5.3741C5.25992 5.48377 5.16376 5.60096 5.07812 5.73017C4.99249 5.85787 4.92037 5.99159 4.86178 6.13432C4.80168 6.27704 4.75811 6.42278 4.72806 6.57452C4.69802 6.72476 4.68299 6.8765 4.68299 7.03125V67.9688C4.68299 68.122 4.69802 68.2752 4.72806 68.4255C4.75811 68.5757 4.80168 68.723 4.86178 68.8642C4.92037 69.0069 4.99249 69.1421 5.07812 69.2698C5.16376 69.3975 5.25992 69.5162 5.36809 69.6244C5.47776 69.7341 5.59495 69.8302 5.72266 69.9159C5.85036 70.0015 5.98558 70.0736 6.1283 70.1322C6.26953 70.1923 6.41677 70.2359 6.56701 70.2659C6.71725 70.296 6.86899 70.3125 7.02374 70.3125H53.8416C53.9964 70.3125 54.1481 70.296 54.2984 70.2659C54.4501 70.2359 54.5958 70.1923 54.7371 70.1322C54.8798 70.0736 55.015 70.0015 55.1427 69.9159C55.2704 69.8302 55.3876 69.7341 55.4973 69.6244C55.6055 69.5162 55.7031 69.3975 55.7873 69.2698C55.8729 69.1421 55.945 69.0069 56.0036 68.8642C56.0637 68.723 56.1073 68.5757 56.1373 68.4255C56.1674 68.2752 56.1824 68.122 56.1839 67.9688V7.03125C56.1824 6.8765 56.1674 6.72476 56.1373 6.57452C56.1073 6.42278 56.0637 6.27704 56.0036 6.13432C55.945 5.99159 55.8729 5.85787 55.7873 5.73017C55.7031 5.60096 55.6055 5.48377 55.4973 5.3741C55.3876 5.26593 55.2704 5.16827 55.1427 5.08263C55.015 4.997 54.8798 4.92488 54.7371 4.86629C54.5958 4.80769 54.4501 4.76262 54.2984 4.73257C54.1481 4.70252 53.9964 4.6875 53.8416 4.6875H7.02374Z" fill="white"/>
</g>
<path d="M42.1379 14.0625H18.7275C18.5742 14.0625 18.4225 14.0475 18.2707 14.0174C18.1205 13.9874 17.9748 13.9423 17.832 13.8837C17.6908 13.8251 17.5556 13.753 17.4279 13.6674C17.3002 13.5817 17.1815 13.4841 17.0733 13.3759C16.9636 13.2662 16.8675 13.149 16.7819 13.0198C16.6962 12.8921 16.6241 12.7569 16.5655 12.6157C16.5069 12.473 16.4618 12.3272 16.4318 12.1755C16.4017 12.0252 16.3867 11.872 16.3867 11.7188C16.3867 11.564 16.4017 11.4123 16.4318 11.2605C16.4618 11.1103 16.5069 10.963 16.5655 10.8218C16.6241 10.6791 16.6962 10.5439 16.7819 10.4162C16.8675 10.2885 16.9636 10.1698 17.0733 10.0616C17.1815 9.95192 17.3002 9.85577 17.4279 9.77013C17.5556 9.6845 17.6908 9.61238 17.832 9.55228C17.9748 9.49369 18.1205 9.45012 18.2707 9.42007C18.4225 9.39002 18.5742 9.375 18.7275 9.375H42.1379C42.2912 9.375 42.4429 9.39002 42.5947 9.42007C42.7449 9.45012 42.8906 9.49369 43.0334 9.55228C43.1761 9.61238 43.3098 9.6845 43.4375 9.77013C43.5652 9.85577 43.6839 9.95192 43.7936 10.0616C43.9017 10.1698 43.9979 10.2885 44.0835 10.4162C44.1692 10.5439 44.2413 10.6791 44.2999 10.8218C44.3585 10.963 44.4035 11.1103 44.4336 11.2605C44.4636 11.4123 44.4787 11.564 44.4787 11.7188C44.4787 11.872 44.4636 12.0252 44.4336 12.1755C44.4035 12.3272 44.3585 12.473 44.2999 12.6157C44.2413 12.7569 44.1692 12.8921 44.0835 13.0198C43.9979 13.149 43.9017 13.2662 43.7936 13.3759C43.6839 13.4841 43.5652 13.5817 43.4375 13.6674C43.3098 13.753 43.1761 13.8251 43.0334 13.8837C42.8906 13.9423 42.7449 13.9874 42.5947 14.0174C42.4429 14.0475 42.2912 14.0625 42.1379 14.0625Z" fill="white"/>
<path d="M49.16 28.125H30.4325C30.2793 28.125 30.1261 28.11 29.9758 28.0799C29.8256 28.0499 29.6783 28.0048 29.5371 27.9462C29.3944 27.8876 29.2592 27.8155 29.1315 27.7299C29.0038 27.6442 28.8866 27.5466 28.7769 27.4384C28.6687 27.3287 28.5711 27.2115 28.4869 27.0823C28.4013 26.9546 28.3292 26.8194 28.2706 26.6782C28.2105 26.5355 28.1669 26.3897 28.1369 26.238C28.1068 26.0877 28.0918 25.9345 28.0918 25.7812C28.0918 25.6265 28.1068 25.4748 28.1369 25.323C28.1669 25.1728 28.2105 25.0255 28.2706 24.8843C28.3292 24.7416 28.4013 24.6064 28.4869 24.4787C28.5711 24.351 28.6687 24.2323 28.7769 24.1241C28.8866 24.0144 29.0038 23.9183 29.1315 23.8326C29.2592 23.747 29.3944 23.6749 29.5371 23.6148C29.6783 23.5562 29.8256 23.5126 29.9758 23.4826C30.1261 23.4525 30.2793 23.4375 30.4325 23.4375H49.16C49.3133 23.4375 49.4665 23.4525 49.6167 23.4826C49.767 23.5126 49.9142 23.5562 50.0554 23.6148C50.1982 23.6749 50.3334 23.747 50.4611 23.8326C50.5888 23.9183 50.7075 24.0144 50.8157 24.1241C50.9238 24.2323 51.0215 24.351 51.1071 24.4787C51.1928 24.6064 51.2649 24.7416 51.3235 24.8843C51.3821 25.0255 51.4256 25.1728 51.4557 25.323C51.4857 25.4748 51.5008 25.6265 51.5008 25.7812C51.5008 25.9345 51.4857 26.0877 51.4557 26.238C51.4256 26.3897 51.3821 26.5355 51.3235 26.6782C51.2649 26.8194 51.1928 26.9546 51.1071 27.0823C51.0215 27.2115 50.9238 27.3287 50.8157 27.4384C50.7075 27.5466 50.5888 27.6442 50.4611 27.7299C50.3334 27.8155 50.1982 27.8876 50.0554 27.9462C49.9142 28.0048 49.767 28.0499 49.6167 28.0799C49.4665 28.11 49.3133 28.125 49.16 28.125Z" fill="white"/>
<path d="M18.7277 32.8125H14.0462C13.7397 32.8125 13.4348 32.781 13.1328 32.7209C12.8323 32.6608 12.5393 32.5721 12.2554 32.4534C11.9714 32.3362 11.7025 32.192 11.4456 32.0207C11.1902 31.8495 10.9543 31.6557 10.7364 31.4378C10.5201 31.22 10.3263 30.9841 10.155 30.7272C9.98374 30.4718 9.83951 30.2013 9.72232 29.9174C9.60363 29.6334 9.51499 29.3404 9.45489 29.0385C9.39479 28.7365 9.36475 28.433 9.36475 28.125V23.4375C9.36475 23.1295 9.39479 22.8245 9.45489 22.5225C9.51499 22.2206 9.60363 21.9276 9.72232 21.6436C9.83951 21.3597 9.98374 21.0892 10.155 20.8338C10.3263 20.5784 10.5201 20.341 10.7364 20.1232C10.9543 19.9069 11.1902 19.7115 11.4456 19.5418C11.7025 19.3705 11.9714 19.2263 12.2554 19.1076C12.5393 18.9904 12.8323 18.9002 13.1328 18.8401C13.4348 18.78 13.7397 18.75 14.0462 18.75H18.7277C19.0357 18.75 19.3392 18.78 19.6412 18.8401C19.9432 18.9002 20.2346 18.9904 20.5186 19.1076C20.8025 19.2263 21.073 19.3705 21.3284 19.5418C21.5838 19.7115 21.8197 19.9069 22.0375 20.1232C22.2554 20.341 22.4492 20.5784 22.619 20.8338C22.7902 21.0892 22.9345 21.3597 23.0531 21.6436C23.1703 21.9276 23.259 22.2206 23.3191 22.5225C23.3792 22.8245 23.4092 23.1295 23.4107 23.4375V28.125C23.4092 28.433 23.3792 28.7365 23.3191 29.0385C23.259 29.3404 23.1703 29.6334 23.0531 29.9174C22.9345 30.2013 22.7902 30.4718 22.619 30.7272C22.4492 30.9841 22.2554 31.22 22.0375 31.4378C21.8197 31.6557 21.5838 31.8495 21.3284 32.0207C21.073 32.192 20.8025 32.3362 20.5186 32.4534C20.2346 32.5721 19.9432 32.6608 19.6412 32.7209C19.3392 32.781 19.0357 32.8125 18.7277 32.8125ZM14.0462 23.4375V28.125H18.7322L18.7277 23.4375H14.0462Z" fill="white"/>
<path d="M49.16 44.5312H30.4325C30.2793 44.5312 30.1261 44.5162 29.9758 44.4862C29.8256 44.4561 29.6783 44.4111 29.5371 44.3525C29.3944 44.2939 29.2592 44.2218 29.1315 44.1361C29.0038 44.0505 28.8866 43.9528 28.7769 43.8447C28.6687 43.735 28.5711 43.6178 28.4869 43.4886C28.4013 43.3609 28.3292 43.2257 28.2706 43.0844C28.2105 42.9417 28.1669 42.796 28.1369 42.6442C28.1068 42.494 28.0918 42.3407 28.0918 42.1875C28.0918 42.0328 28.1068 41.881 28.1369 41.7293C28.1669 41.579 28.2105 41.4318 28.2706 41.2906C28.3292 41.1478 28.4013 41.0126 28.4869 40.8849C28.5711 40.7572 28.6687 40.6385 28.7769 40.5303C28.8866 40.4207 29.0038 40.3245 29.1315 40.2389C29.2592 40.1532 29.3944 40.0811 29.5371 40.021C29.6783 39.9624 29.8256 39.9189 29.9758 39.8888C30.1261 39.8588 30.2793 39.8438 30.4325 39.8438H49.16C49.3133 39.8438 49.4665 39.8588 49.6167 39.8888C49.767 39.9189 49.9142 39.9624 50.0554 40.021C50.1982 40.0811 50.3334 40.1532 50.4611 40.2389C50.5888 40.3245 50.7075 40.4207 50.8157 40.5303C50.9238 40.6385 51.0215 40.7572 51.1071 40.8849C51.1928 41.0126 51.2649 41.1478 51.3235 41.2906C51.3821 41.4318 51.4256 41.579 51.4557 41.7293C51.4857 41.881 51.5008 42.0328 51.5008 42.1875C51.5008 42.3407 51.4857 42.494 51.4557 42.6442C51.4256 42.796 51.3821 42.9417 51.3235 43.0844C51.2649 43.2257 51.1928 43.3609 51.1071 43.4886C51.0215 43.6178 50.9238 43.735 50.8157 43.8447C50.7075 43.9528 50.5888 44.0505 50.4611 44.1361C50.3334 44.2218 50.1982 44.2939 50.0554 44.3525C49.9142 44.4111 49.767 44.4561 49.6167 44.4862C49.4665 44.5162 49.3133 44.5312 49.16 44.5312Z" fill="white"/>
<path d="M18.7277 49.2188H14.0462C13.7397 49.2188 13.4348 49.1872 13.1328 49.1271C12.8323 49.067 12.5393 48.9784 12.2554 48.8597C11.9714 48.7425 11.7025 48.5983 11.4456 48.427C11.1902 48.2557 10.9543 48.0619 10.7364 47.8441C10.5201 47.6262 10.3263 47.3903 10.155 47.1334C9.98374 46.878 9.83951 46.6076 9.72232 46.3236C9.60363 46.0397 9.51499 45.7467 9.45489 45.4447C9.39479 45.1427 9.36475 44.8392 9.36475 44.5313V39.8438C9.36475 39.5358 9.39479 39.2308 9.45489 38.9288C9.51499 38.6268 9.60363 38.3338 9.72232 38.0499C9.83951 37.7659 9.98374 37.4955 10.155 37.2401C10.3263 36.9847 10.5201 36.7473 10.7364 36.5294C10.9543 36.3131 11.1902 36.1178 11.4456 35.948C11.7025 35.7767 11.9714 35.6325 12.2554 35.5138C12.5393 35.3966 12.8323 35.3065 13.1328 35.2464C13.4348 35.1863 13.7397 35.1562 14.0462 35.1562H18.7277C19.0357 35.1562 19.3392 35.1863 19.6412 35.2464C19.9432 35.3065 20.2346 35.3966 20.5186 35.5138C20.8025 35.6325 21.073 35.7767 21.3284 35.948C21.5838 36.1178 21.8197 36.3131 22.0375 36.5294C22.2554 36.7473 22.4492 36.9847 22.619 37.2401C22.7902 37.4955 22.9345 37.7659 23.0531 38.0499C23.1703 38.3338 23.259 38.6268 23.3191 38.9288C23.3792 39.2308 23.4092 39.5358 23.4107 39.8438V44.5313C23.4092 44.8392 23.3792 45.1427 23.3191 45.4447C23.259 45.7467 23.1703 46.0397 23.0531 46.3236C22.9345 46.6076 22.7902 46.878 22.619 47.1334C22.4492 47.3903 22.2554 47.6262 22.0375 47.8441C21.8197 48.0619 21.5838 48.2557 21.3284 48.427C21.073 48.5983 20.8025 48.7425 20.5186 48.8597C20.2346 48.9784 19.9432 49.067 19.6412 49.1271C19.3392 49.1872 19.0357 49.2188 18.7277 49.2188ZM14.0462 39.8438V44.5313H18.7322L18.7277 39.8438H14.0462Z" fill="white"/>
<path d="M49.16 60.9375H30.4325C30.2793 60.9375 30.1261 60.9225 29.9758 60.8924C29.8256 60.8624 29.6783 60.8173 29.5371 60.7587C29.3944 60.7001 29.2592 60.628 29.1315 60.5424C29.0038 60.4567 28.8866 60.3591 28.7769 60.2509C28.6687 60.1412 28.5711 60.024 28.4869 59.8948C28.4013 59.7671 28.3292 59.6319 28.2706 59.4907C28.2105 59.348 28.1669 59.2022 28.1369 59.0505C28.1068 58.9002 28.0918 58.747 28.0918 58.5938C28.0918 58.439 28.1068 58.2873 28.1369 58.1355C28.1669 57.9853 28.2105 57.838 28.2706 57.6968C28.3292 57.5541 28.4013 57.4189 28.4869 57.2912C28.5711 57.1635 28.6687 57.0448 28.7769 56.9366C28.8866 56.8269 29.0038 56.7308 29.1315 56.6451C29.2592 56.5595 29.3944 56.4874 29.5371 56.4273C29.6783 56.3687 29.8256 56.3251 29.9758 56.2951C30.1261 56.265 30.2793 56.25 30.4325 56.25H49.16C49.3133 56.25 49.4665 56.265 49.6167 56.2951C49.767 56.3251 49.9142 56.3687 50.0554 56.4273C50.1982 56.4874 50.3334 56.5595 50.4611 56.6451C50.5888 56.7308 50.7075 56.8269 50.8157 56.9366C50.9238 57.0448 51.0215 57.1635 51.1071 57.2912C51.1928 57.4189 51.2649 57.5541 51.3235 57.6968C51.3821 57.838 51.4256 57.9853 51.4557 58.1355C51.4857 58.2873 51.5008 58.439 51.5008 58.5938C51.5008 58.747 51.4857 58.9002 51.4557 59.0505C51.4256 59.2022 51.3821 59.348 51.3235 59.4907C51.2649 59.6319 51.1928 59.7671 51.1071 59.8948C51.0215 60.024 50.9238 60.1412 50.8157 60.2509C50.7075 60.3591 50.5888 60.4567 50.4611 60.5424C50.3334 60.628 50.1982 60.7001 50.0554 60.7587C49.9142 60.8173 49.767 60.8624 49.6167 60.8924C49.4665 60.9225 49.3133 60.9375 49.16 60.9375Z" fill="white"/>
<path d="M18.7277 65.625H14.0462C13.7397 65.625 13.4348 65.5935 13.1328 65.5334C12.8323 65.4733 12.5393 65.3846 12.2554 65.2659C11.9714 65.1487 11.7025 65.0045 11.4456 64.8332C11.1902 64.662 10.9543 64.4682 10.7364 64.2503C10.5201 64.0325 10.3263 63.7966 10.155 63.5397C9.98374 63.2843 9.83951 63.0138 9.72232 62.7299C9.60363 62.4459 9.51499 62.1529 9.45489 61.851C9.39479 61.549 9.36475 61.2455 9.36475 60.9375V56.25C9.36475 55.942 9.39479 55.637 9.45489 55.335C9.51499 55.0331 9.60363 54.7401 9.72232 54.4561C9.83951 54.1722 9.98374 53.9017 10.155 53.6463C10.3263 53.3909 10.5201 53.1535 10.7364 52.9357C10.9543 52.7194 11.1902 52.524 11.4456 52.3543C11.7025 52.183 11.9714 52.0388 12.2554 51.9201C12.5393 51.8029 12.8323 51.7127 13.1328 51.6526C13.4348 51.5925 13.7397 51.5625 14.0462 51.5625H18.7277C19.0357 51.5625 19.3392 51.5925 19.6412 51.6526C19.9432 51.7127 20.2346 51.8029 20.5186 51.9201C20.8025 52.0388 21.073 52.183 21.3284 52.3543C21.5838 52.524 21.8197 52.7194 22.0375 52.9357C22.2554 53.1535 22.4492 53.3909 22.619 53.6463C22.7902 53.9017 22.9345 54.1722 23.0531 54.4561C23.1703 54.7401 23.259 55.0331 23.3191 55.335C23.3792 55.637 23.4092 55.942 23.4107 56.25V60.9375C23.4092 61.2455 23.3792 61.549 23.3191 61.851C23.259 62.1529 23.1703 62.4459 23.0531 62.7299C22.9345 63.0138 22.7902 63.2843 22.619 63.5397C22.4492 63.7966 22.2554 64.0325 22.0375 64.2503C21.8197 64.4682 21.5838 64.662 21.3284 64.8332C21.073 65.0045 20.8025 65.1487 20.5186 65.2659C20.2346 65.3846 19.9432 65.4733 19.6412 65.5334C19.3392 65.5935 19.0357 65.625 18.7277 65.625ZM14.0462 56.25V60.9375H18.7322L18.7277 56.25H14.0462Z" fill="white"/>
</svg>
