<svg width="98" height="75" viewBox="0 0 98 75" fill="none" xmlns="http://www.w3.org/2000/svg">
<path d="M48.6228 9.85333C57.925 9.85333 65.4627 17.5682 65.4627 27.0888C65.4627 36.5996 57.925 44.3144 48.6228 44.3144C39.3289 44.3144 31.7812 36.5996 31.7812 27.0888C31.7812 17.5682 39.3289 9.85333 48.6228 9.85333Z" fill="white"/>
<mask id="mask0_81_34" style="mask-type:luminance" maskUnits="userSpaceOnUse" x="21" y="48" width="56" height="27">
<path d="M21.0771 48.7851H76.1619V75H21.0771V48.7851Z" fill="white"/>
</mask>
<g mask="url(#mask0_81_34)">
<path d="M48.6227 48.9622C63.622 48.9622 75.7893 54.8034 75.7893 62.0117C75.7893 69.2201 63.622 75.0629 48.6227 75.0629C33.6234 75.0629 21.4561 69.2201 21.4561 62.0117C21.4561 54.8034 33.6234 48.9622 48.6227 48.9622Z" fill="white"/>
</g>
<mask id="mask1_81_34" style="mask-type:luminance" maskUnits="userSpaceOnUse" x="10" y="0" width="31" height="35">
<path d="M10.4839 0H40.1449V34.802H10.4839V0Z" fill="white"/>
</mask>
<g mask="url(#mask1_81_34)">
<path d="M27.3238 34.4428C27.385 34.4428 27.4529 34.4346 27.5141 34.4346C26.7478 32.1305 26.3174 29.6577 26.3174 27.0888C26.3174 17.5947 32.0146 9.44119 40.0952 6.00501C37.005 2.32718 32.4367 -0.00994873 27.3238 -0.00994873C18.0216 -0.00994873 10.4839 7.70489 10.4839 17.2173C10.4839 26.728 18.0216 34.4428 27.3238 34.4428Z" fill="white"/>
</g>
<mask id="mask2_81_34" style="mask-type:luminance" maskUnits="userSpaceOnUse" x="57" y="0" width="31" height="35">
<path d="M57.0942 0H87.179V34.802H57.0942V0Z" fill="white"/>
</mask>
<g mask="url(#mask2_81_34)">
<path d="M70.9282 27.0888C70.9282 29.6577 70.4978 32.1223 69.7315 34.4346C69.7927 34.4346 69.8606 34.4428 69.9218 34.4428C79.224 34.4428 86.7617 26.728 86.7617 17.2173C86.7617 7.69662 79.224 -0.00994873 69.9218 -0.00994873C64.809 -0.00994873 60.2406 2.32718 57.1504 6.00501C65.231 9.44119 70.9282 17.5947 70.9282 27.0888Z" fill="white"/>
</g>
<mask id="mask3_81_34" style="mask-type:luminance" maskUnits="userSpaceOnUse" x="62" y="39" width="36" height="26">
<path d="M62.1792 39.0393H97.2461V64.0393H62.1792V39.0393Z" fill="white"/>
</mask>
<g mask="url(#mask3_81_34)">
<path d="M69.922 39.0906C69.1127 39.0906 68.3215 39.1155 67.5369 39.1502C66.178 41.3582 64.4649 43.3263 62.4604 44.95C73.8713 47.7589 81.2551 54.0817 81.2551 62.0117C81.2551 62.7003 81.1939 63.369 81.0913 64.031C90.5226 61.9869 97.0887 57.4335 97.0887 52.1402C97.0887 44.9318 84.9297 39.0906 69.922 39.0906Z" fill="white"/>
</g>
<mask id="mask4_81_34" style="mask-type:luminance" maskUnits="userSpaceOnUse" x="0" y="39" width="36" height="26">
<path d="M0 39.0393H35.0602V64.0393H0V39.0393Z" fill="white"/>
</mask>
<g mask="url(#mask4_81_34)">
<path d="M34.7855 44.95C32.7893 43.3263 31.0762 41.3665 29.7173 39.1502C28.9244 39.1155 28.1333 39.0906 27.3239 39.0906C12.3163 39.0906 0.157227 44.9318 0.157227 52.1402C0.157227 57.4335 6.73164 61.9869 16.1546 64.031C16.0421 63.369 15.9908 62.7003 15.9908 62.0117C15.9908 54.0817 23.3829 47.7589 34.7855 44.95Z" fill="white"/>
</g>
</svg>
