<svg width="82" height="75" viewBox="0 0 82 75" fill="none" xmlns="http://www.w3.org/2000/svg">
<g clip-path="url(#clip0_54_421)">
<mask id="mask0_54_421" style="mask-type:luminance" maskUnits="userSpaceOnUse" x="0" y="0" width="82" height="75">
<path d="M0 0H81.7798V75H0V0Z" fill="white"/>
</mask>
<g mask="url(#mask0_54_421)">
<path d="M81.5948 9.21725C81.4177 8.69788 80.9391 8.31165 80.3552 8.21509L73.9726 7.16025L72.8224 1.30673C72.7171 0.771268 72.296 0.332363 71.7296 0.169968C71.1633 0.00757357 70.5443 0.14656 70.1248 0.531333L62.2186 7.78203C55.6366 3.74265 47.9889 1.6125 40.0109 1.6125C29.3226 1.6125 19.2756 5.42804 11.7188 12.3598C4.16046 19.2901 0 28.5056 0 38.3064C0 48.1086 4.16046 57.3226 11.7188 64.2529C19.2756 71.1847 29.3226 75.0002 40.0109 75.0002C50.6976 75.0002 60.7462 71.1847 68.303 64.2529C75.8598 57.3226 80.0218 48.1086 80.0218 38.3064C80.0218 30.9913 77.6991 23.9761 73.2946 17.9397L81.2007 10.689C81.6203 10.3043 81.7718 9.73662 81.5948 9.21725ZM38.8831 39.3407C39.1941 39.626 39.6025 39.7694 40.0109 39.7694C40.4193 39.7694 40.8277 39.626 41.1388 39.3407L49.7947 31.4024C51.4027 33.316 52.3631 35.7095 52.3631 38.3064C52.3631 44.5534 46.8211 49.6345 40.0109 49.6345C33.1991 49.6345 27.6588 44.5534 27.6588 38.3064C27.6588 32.0593 33.1991 26.9783 40.0109 26.9783C42.8425 26.9783 45.4524 27.859 47.539 29.3337L38.8831 37.272C38.2593 37.8426 38.2593 38.7701 38.8831 39.3407ZM49.8091 27.2518C47.1338 25.2519 43.7231 24.0522 40.0109 24.0522C31.4411 24.0522 24.4682 30.4471 24.4682 38.3064C24.4682 46.1657 31.4411 52.5605 40.0109 52.5605C48.5807 52.5605 55.5536 46.1657 55.5536 38.3064C55.5536 34.9019 54.2439 31.774 52.0664 29.3205L58.5128 23.407C62.3287 27.3864 64.6466 32.6035 64.6466 38.3064C64.6466 50.7639 53.5946 60.8997 40.0109 60.8997C26.4272 60.8997 15.3752 50.7639 15.3752 38.3064C15.3752 25.8488 26.4272 15.713 40.0109 15.713C46.2309 15.713 51.918 17.8388 56.2571 21.3383L49.8091 27.2518ZM76.8329 38.3064C76.8329 56.9262 60.3139 72.0757 40.0109 72.0757C19.7079 72.0757 3.18894 56.9262 3.18894 38.3064C3.18894 19.6866 19.7079 4.53707 40.0109 4.53707C47.1386 4.53707 53.9807 6.38485 59.9151 9.89463L59.2818 10.4754C58.9132 10.8149 58.7473 11.2977 58.8415 11.7687L60.0395 17.8695L58.516 19.2667C53.5946 15.239 47.1099 12.787 40.0109 12.787C24.6676 12.787 12.1847 24.2351 12.1847 38.3064C12.1847 52.3777 24.6676 63.8257 40.0109 63.8257C55.3542 63.8257 67.8372 52.3777 67.8372 38.3064C67.8372 31.796 65.1635 25.8488 60.7717 21.3354L62.2952 19.9382L68.9475 21.0384C69.0416 21.053 69.1357 21.0618 69.2298 21.0618C69.6494 21.0618 70.0562 20.9097 70.3577 20.6332L70.991 20.0523C74.8181 25.4962 76.8329 31.7696 76.8329 38.3064ZM68.6922 18.0231L63.1311 17.1044L62.1277 12.0028L70.2237 4.57803L71.0293 8.67886C71.149 9.28016 71.661 9.74979 72.3167 9.85805L76.7882 10.5983L68.6922 18.0231Z" fill="white"/>
</g>
</g>
<defs>
<clipPath id="clip0_54_421">
<rect width="81.7798" height="75" fill="white"/>
</clipPath>
</defs>
</svg>
