<svg width="30" height="30" viewBox="0 0 30 30" fill="none" xmlns="http://www.w3.org/2000/svg">
<path d="M15.0033 7.27093C10.7468 7.27093 7.31344 10.6875 7.31344 14.9231C7.31344 19.1588 10.7468 22.5753 15.0033 22.5753C19.2599 22.5753 22.6933 19.1588 22.6933 14.9231C22.6933 10.6875 19.2599 7.27093 15.0033 7.27093ZM15.0033 19.8981C12.2527 19.8981 10.0039 17.667 10.0039 14.9231C10.0039 12.1793 12.246 9.9482 15.0033 9.9482C17.7607 9.9482 20.0028 12.1793 20.0028 14.9231C20.0028 17.667 17.754 19.8981 15.0033 19.8981ZM24.8015 6.95792C24.8015 7.95024 23.9983 8.74277 23.0078 8.74277C22.0106 8.74277 21.2142 7.94358 21.2142 6.95792C21.2142 5.97225 22.0173 5.17307 23.0078 5.17307C23.9983 5.17307 24.8015 5.97225 24.8015 6.95792ZM29.8946 8.76941C29.7808 6.37851 29.232 4.26066 27.4718 2.51577C25.7184 0.770882 23.5901 0.224771 21.1874 0.104893C18.7111 -0.0349644 11.2889 -0.0349644 8.8126 0.104893C6.41662 0.218111 4.28834 0.764222 2.52817 2.50911C0.767987 4.254 0.225878 6.37185 0.10541 8.76274C-0.0351366 11.2269 -0.0351366 18.6127 0.10541 21.0769C0.219186 23.4678 0.767987 25.5856 2.52817 27.3305C4.28834 29.0754 6.40993 29.6215 8.8126 29.7414C11.2889 29.8812 18.7111 29.8812 21.1874 29.7414C23.5901 29.6282 25.7184 29.0821 27.4718 27.3305C29.2253 25.5856 29.7741 23.4678 29.8946 21.0769C30.0351 18.6127 30.0351 11.2336 29.8946 8.76941ZM26.6955 23.7208C26.1735 25.0262 25.1629 26.0318 23.8444 26.558C21.8701 27.3372 17.1852 27.1574 15.0033 27.1574C12.8215 27.1574 8.12995 27.3305 6.1623 26.558C4.85053 26.0385 3.83993 25.0328 3.31121 23.7208C2.52817 21.7562 2.70887 17.0943 2.70887 14.9231C2.70887 12.752 2.53486 8.08344 3.31121 6.12543C3.83324 4.82009 4.84384 3.81445 6.1623 3.28832C8.13664 2.50911 12.8215 2.68893 15.0033 2.68893C17.1852 2.68893 21.8767 2.51577 23.8444 3.28832C25.1562 3.80779 26.1668 4.81343 26.6955 6.12543C27.4785 8.0901 27.2978 12.752 27.2978 14.9231C27.2978 17.0943 27.4785 21.7628 26.6955 23.7208Z" fill="#F3F3F3"/>
</svg>
