<svg width="180" height="78" viewBox="0 0 180 78" fill="none" xmlns="http://www.w3.org/2000/svg">
<mask id="mask0_54_231" style="mask-type:luminance" maskUnits="userSpaceOnUse" x="124" y="59" width="18" height="18">
<path d="M124.411 59.7798H141.088V76.8462H124.411V59.7798Z" fill="white"/>
</mask>
<g mask="url(#mask0_54_231)">
<path d="M132.871 72.6139C130.646 72.6139 128.843 70.7681 128.843 68.4991C128.843 66.2235 130.646 64.3821 132.871 64.3821C135.095 64.3821 136.895 66.2235 136.895 68.4991C136.895 70.7681 135.095 72.6139 132.871 72.6139ZM132.871 60.1698C128.376 60.1698 124.72 63.9057 124.72 68.4991C124.72 69.3456 124.846 70.161 125.078 70.9299C125.397 72.0112 125.934 72.9995 126.628 73.8459C128.127 75.6674 130.368 76.8262 132.871 76.8262C135.371 76.8262 137.616 75.6674 139.11 73.8459C139.805 72.9995 140.341 72.0112 140.662 70.9299C140.895 70.161 141.019 69.3456 141.019 68.4991C141.019 63.9057 137.362 60.1698 132.871 60.1698Z" fill="#F3F3F3"/>
</g>
<mask id="mask1_54_231" style="mask-type:luminance" maskUnits="userSpaceOnUse" x="38" y="59" width="18" height="18">
<path d="M38.8037 59.7798H55.4804V76.8462H38.8037V59.7798Z" fill="white"/>
</mask>
<g mask="url(#mask1_54_231)">
<path d="M47.2376 72.6139C45.0162 72.6139 43.2139 70.7681 43.2139 68.4991C43.2139 66.2235 45.0162 64.3821 47.2376 64.3821C49.4633 64.3821 51.2656 66.2235 51.2656 68.4991C51.2656 70.7681 49.4633 72.6139 47.2376 72.6139ZM47.2376 60.1698C42.7471 60.1698 39.0903 63.9057 39.0903 68.4991C39.0903 69.3456 39.2163 70.161 39.4464 70.9299C39.77 72.0112 40.3042 72.9995 40.999 73.8459C42.4952 75.6674 44.7383 76.8262 47.2376 76.8262C49.7413 76.8262 51.9822 75.6674 53.4805 73.8459C54.1776 72.9995 54.7117 72.0112 55.0331 70.9299C55.2633 70.161 55.3892 69.3456 55.3892 68.4991C55.3892 63.9057 51.7325 60.1698 47.2376 60.1698Z" fill="#F3F3F3"/>
</g>
<mask id="mask2_54_231" style="mask-type:luminance" maskUnits="userSpaceOnUse" x="0" y="0" width="180" height="74">
<path d="M0 0.692261H180V73.9611H0V0.692261Z" fill="white"/>
</mask>
<g mask="url(#mask2_54_231)">
<path d="M177.097 61.6921H174.689C172.487 61.6921 170.704 59.8706 170.704 57.6216V55.2152C170.704 51.302 173.46 48.0425 177.097 47.3622V61.6921ZM170.276 38.962C170.276 40.5751 169 41.878 167.423 41.878H143.626V11.6208H167.423C169 11.6208 170.276 12.9281 170.276 14.5368V38.962ZM140.773 41.878H115.549V11.6208H140.773V41.878ZM112.694 41.878H87.4726V11.6208H112.694V41.878ZM84.6193 41.878H60.8224C59.2459 41.878 57.9648 40.5751 57.9648 38.962V14.5368C57.9648 12.9281 59.2459 11.6208 60.8224 11.6208H84.6193V41.878ZM49.3854 29.2987C49.3854 47.7301 31.7576 52.9439 24.2205 54.3311C22.4725 54.6546 20.87 53.2741 20.87 51.4571V13.8632C20.87 12.2523 22.1468 10.9472 23.7232 10.9472H46.5321C48.1086 10.9472 49.3854 12.2523 49.3854 13.8632V29.2987ZM10.6251 36.5755C9.64575 45.1708 9.30483 50.039 3.41152 51.4128C4.31484 41.508 6.71212 21.5078 10.1864 11.6208C15.1743 13.0256 12.2211 22.6313 10.6251 36.5755ZM11.1071 56.9834C10.8096 59.9681 9.1702 62.4322 3.01197 62.9285V56.9967C3.01197 56.7973 3.02283 56.476 3.04889 56.0483C4.36913 55.6827 6.48412 55.1598 8.94654 54.8208C10.1712 54.6546 11.2331 55.7226 11.1071 56.9834ZM179.942 9.98106C179.679 6.76366 177.025 0.676758 168.863 0.676758H21.263C15.3045 0.676758 11.9996 3.32468 10.8509 4.46362C7.79784 7.49489 5.08136 16.9654 2.7818 32.6181C1.03161 44.5082 0.158691 55.747 0.158691 56.9967V63.6642C0.158691 68.601 4.14981 73.8459 11.5479 73.8459H37.564C37.3143 73.3784 37.1015 72.8909 36.9191 72.3879C36.7476 71.9182 36.6043 71.4307 36.4979 70.9299C36.3263 70.1477 36.2373 69.3345 36.2373 68.4991C36.2373 62.297 41.173 57.2515 47.2378 57.2515C53.307 57.2515 58.2427 62.297 58.2427 68.4991C58.2427 69.3345 58.1537 70.1477 57.9822 70.9299C57.8758 71.4307 57.7324 71.9182 57.5609 72.3879C57.3785 72.8909 57.1657 73.3784 56.916 73.8459H123.193C122.943 73.3784 122.73 72.8909 122.548 72.3879C122.376 71.9182 122.235 71.4307 122.127 70.9299C121.955 70.1477 121.866 69.3345 121.866 68.4991C121.866 62.297 126.804 57.2515 132.871 57.2515C138.936 57.2515 143.872 62.297 143.872 68.4991C143.872 69.3345 143.783 70.1477 143.611 70.9299C143.505 71.4307 143.361 71.9182 143.192 72.3879C143.01 72.8909 142.795 73.3784 142.545 73.8459H171.414C177.714 73.8459 179.95 69.1461 179.95 65.1222V10.1029C179.95 10.063 179.946 10.0232 179.942 9.98106Z" fill="#F3F3F3"/>
</g>
</svg>
