<svg width="130" height="127" viewBox="0 0 130 127" fill="none" xmlns="http://www.w3.org/2000/svg">
<path d="M63.8671 23.0368L63.8461 12.3079C62.5702 12.3621 61.3174 12.5107 60.098 12.7397C57.9359 16.1527 56.264 19.5877 55.0488 23.0368H63.8671Z" fill="#F3F3F3"/>
<path d="M90.3785 37.6205H79.1865C79.0838 41.1178 78.5223 44.6251 77.5083 48.1385H87.3636C89.1445 44.9847 90.2151 41.4131 90.3785 37.6205Z" fill="#F3F3F3"/>
<path d="M86.079 50.1714H76.8711C75.7774 53.3995 74.3004 56.6316 72.4399 59.8638C78.059 58.2125 82.8589 54.7434 86.079 50.1714Z" fill="#F3F3F3"/>
<path d="M69.595 60.5247C71.7257 57.0716 73.3808 53.6205 74.6002 50.1714H66.0459L66.0668 60.9023C67.2652 60.8561 68.4427 60.7255 69.595 60.5247Z" fill="#F3F3F3"/>
<path d="M75.3502 25.0696H65.9956L66.0166 35.5876H77.0263C76.9488 32.0682 76.3915 28.5608 75.3502 25.0696Z" fill="#F3F3F3"/>
<path d="M86.0791 23.0368C82.8652 18.4748 78.08 15.0097 72.4756 13.3524C74.3675 16.5645 75.8592 19.7926 76.9528 23.0368H86.0791Z" fill="#F3F3F3"/>
<path d="M74.6816 23.0367C73.4581 19.5675 71.7757 16.1164 69.601 12.6854C68.4173 12.4765 67.2063 12.346 65.9702 12.3018L65.9912 23.0367H74.6816Z" fill="#F3F3F3"/>
<path d="M52.1404 25.0696H42.6496C40.8688 28.2234 39.7982 31.795 39.6348 35.5876H50.5377C50.611 32.0702 51.1452 28.5629 52.1404 25.0696Z" fill="#F3F3F3"/>
<path d="M75.2787 48.1385C76.3368 44.6251 76.9066 41.1178 77.0135 37.6205H66.0205L66.0415 48.1385H75.2787Z" fill="#F3F3F3"/>
<path d="M79.1926 35.5876H90.3783C90.2149 31.795 89.1443 28.2234 87.3635 25.0696H77.5898C78.585 28.5629 79.1172 32.0702 79.1926 35.5876Z" fill="#F3F3F3"/>
<path d="M63.9172 48.1385L63.8962 37.6205H52.7168C52.8236 41.1178 53.3935 44.6251 54.4515 48.1385H63.9172Z" fill="#F3F3F3"/>
<path d="M54.3782 25.0696C53.3391 28.5608 52.7797 32.0682 52.7021 35.5876H63.8921L63.8711 25.0696H54.3782Z" fill="#F3F3F3"/>
<path d="M57.2294 59.7573C55.3962 56.5613 53.9401 53.3654 52.8591 50.1714H43.936C47.0892 54.651 51.7591 58.0679 57.2294 59.7573Z" fill="#F3F3F3"/>
<path d="M63.9424 60.9023L63.9214 50.1714H55.1304C56.3413 53.6024 57.9881 57.0354 60.1041 60.4704C61.3528 60.7054 62.635 60.8521 63.9424 60.9023Z" fill="#F3F3F3"/>
<path d="M57.1917 13.4629C51.7361 15.1563 47.0808 18.5692 43.936 23.0367H52.7774C53.8584 19.8307 55.3292 16.6388 57.1917 13.4629Z" fill="#F3F3F3"/>
<path d="M52.2221 48.1385C51.2081 44.6251 50.6487 41.1178 50.5439 37.6205H39.6348C39.7982 41.4131 40.8688 44.9827 42.6496 48.1385H52.2221Z" fill="#F3F3F3"/>
<mask id="mask0_54_262" style="mask-type:luminance" maskUnits="userSpaceOnUse" x="63" y="0" width="4" height="10">
<path d="M63.5693 0H66.2511V9.18415H63.5693V0Z" fill="white"/>
</mask>
<g mask="url(#mask0_54_262)">
<path d="M64.8996 8.96118C64.8996 8.96118 64.8996 8.96118 64.9017 8.96118C65.4884 8.95917 65.9618 8.50318 65.9618 7.94072L65.9472 1.01644C65.9472 0.453985 65.4695 0 64.885 0C64.885 0 64.885 0 64.8829 0C64.2962 0.00200865 63.8228 0.458002 63.8228 1.02046L63.8374 7.94473C63.8374 8.50519 64.313 8.96118 64.8996 8.96118Z" fill="#F3F3F3"/>
</g>
<path d="M31.6274 96.3473C24.7346 96.3473 19.126 101.719 19.126 108.322C19.126 114.923 24.7346 120.294 31.6274 120.294C38.5203 120.294 44.1289 114.923 44.1289 108.322C44.1289 101.719 38.5203 96.3473 31.6274 96.3473ZM31.6274 117.522C26.3205 117.522 22.0193 113.402 22.0193 108.322C22.0193 103.239 26.3205 99.1194 31.6274 99.1194C36.9322 99.1194 41.2356 103.239 41.2356 108.322C41.2356 113.402 36.9322 117.522 31.6274 117.522Z" fill="#F3F3F3"/>
<mask id="mask1_54_262" style="mask-type:luminance" maskUnits="userSpaceOnUse" x="13" y="76" width="38" height="51">
<path d="M13.1528 76.5507H50.1607V126.119H13.1528V76.5507Z" fill="white"/>
</mask>
<g mask="url(#mask1_54_262)">
<path d="M44.5187 76.9685H18.7344C15.7027 76.9685 13.2368 79.3328 13.2368 82.2375V120.854C13.2368 123.759 15.7027 126.121 18.7344 126.121H44.5187C47.5503 126.121 50.0163 123.759 50.0163 120.854V82.2375C50.0163 79.3328 47.5503 76.9685 44.5187 76.9685ZM23.375 81.6891H39.8802C41.6275 81.6891 43.0438 83.0471 43.0438 84.7204C43.0438 86.3937 41.6275 87.7516 39.8802 87.7516H23.375C21.6277 87.7516 20.2114 86.3937 20.2114 84.7204C20.2093 83.0471 21.6277 81.6891 23.375 81.6891ZM31.6276 122.329C23.5615 122.329 17.0017 116.043 17.0017 108.322C17.0017 100.598 23.5615 94.3143 31.6276 94.3143C39.6916 94.3143 46.2535 100.598 46.2535 108.322C46.2535 116.043 39.6916 122.329 31.6276 122.329Z" fill="#F3F3F3"/>
</g>
<path d="M98.145 96.3473C91.2521 96.3473 85.6436 101.719 85.6436 108.322C85.6436 114.923 91.2521 120.294 98.145 120.294C105.038 120.294 110.646 114.923 110.646 108.322C110.646 101.719 105.038 96.3473 98.145 96.3473ZM98.145 117.522C92.8381 117.522 88.5369 113.402 88.5369 108.322C88.5369 103.239 92.8381 99.1194 98.145 99.1194C103.45 99.1194 107.753 103.239 107.753 108.322C107.753 113.402 103.45 117.522 98.145 117.522Z" fill="#F3F3F3"/>
<mask id="mask2_54_262" style="mask-type:luminance" maskUnits="userSpaceOnUse" x="79" y="76" width="38" height="51">
<path d="M79.6597 76.5507H116.667V126.119H79.6597V76.5507Z" fill="white"/>
</mask>
<g mask="url(#mask2_54_262)">
<path d="M111.036 76.9685H85.2535C82.2198 76.9685 79.7539 79.3328 79.7539 82.2375V120.854C79.7539 123.759 82.2198 126.121 85.2535 126.121H111.036C114.067 126.121 116.535 123.759 116.535 120.854V82.2375C116.535 79.3328 114.067 76.9685 111.036 76.9685ZM89.8921 81.6891H106.397C108.145 81.6891 109.561 83.0471 109.561 84.7204C109.561 86.3937 108.145 87.7516 106.397 87.7516H89.8921C88.1448 87.7516 86.7285 86.3937 86.7285 84.7204C86.7264 83.0471 88.1448 81.6891 89.8921 81.6891ZM98.1447 122.329C90.0806 122.329 83.5188 116.043 83.5188 108.322C83.5188 100.598 90.0806 94.3143 98.1447 94.3143C106.209 94.3143 112.771 100.598 112.771 108.322C112.771 116.043 106.209 122.329 98.1447 122.329Z" fill="#F3F3F3"/>
</g>
<path d="M15.4365 69.2125C16.0797 69.6103 16.8612 69.8192 17.6741 69.8192C17.8249 69.8192 17.9778 69.8111 18.1329 69.7971C20.2343 69.5942 21.7951 68.0314 21.6149 66.3118C21.6128 66.2877 21.6024 66.2656 21.6003 66.2415C21.5982 66.2315 21.6024 66.2194 21.6003 66.2094L20.5339 61.2075C21.6694 59.9862 23.2554 58.9959 25.2583 58.2627C25.6417 58.122 25.9057 57.7826 25.9392 57.3929C25.9706 57.0011 25.7653 56.6255 25.4092 56.4306C23.0019 55.1048 20.5506 54.8558 18.1203 55.6914C17.6238 55.8622 17.3326 56.3563 17.4373 56.8525L18.3445 61.1131C18.3466 61.1292 18.3508 61.1432 18.355 61.1593L18.885 63.6502C18.4409 63.5518 17.9653 63.5156 17.475 63.5618C15.3736 63.7667 13.8107 65.3316 13.993 67.0491C14.0831 67.9128 14.6089 68.7003 15.4365 69.2125ZM22.2225 57.3788C21.4117 57.8147 20.6805 58.3008 20.0289 58.8392L19.7147 57.3647C20.5527 57.196 21.3845 57.2 22.2225 57.3788ZM17.6887 65.5867C17.7662 65.5786 17.8438 65.5746 17.9213 65.5746C18.6755 65.5746 19.3355 65.9282 19.4717 66.4042L19.4989 66.5328C19.5429 67.1113 18.8117 67.6859 17.9171 67.7722C17.431 67.8204 16.9429 67.72 16.5867 67.501C16.4212 67.3986 16.1404 67.1776 16.1048 66.8422C16.0441 66.2616 16.7836 65.6731 17.6887 65.5867Z" fill="#F3F3F3"/>
<path d="M88.5409 58.5982C88.0422 58.769 87.751 59.2631 87.8579 59.7593L88.7671 64.03C88.7692 64.038 88.7713 64.046 88.7734 64.0541L89.3035 66.549C88.853 66.4505 88.3754 66.4224 87.8935 66.4706C86.9193 66.565 86.0247 66.9527 85.3752 67.5594C84.6712 68.2183 84.3192 69.0921 84.4114 69.9559C84.5015 70.8197 85.0295 71.6071 85.8549 72.1193C86.4981 72.5171 87.2775 72.726 88.0904 72.726C88.2434 72.726 88.3963 72.7179 88.5513 72.7039C89.5235 72.6095 90.4202 72.2238 91.0697 71.6151C91.7736 70.9562 92.1256 70.0844 92.0334 69.2207C92.0313 69.1966 92.0208 69.1745 92.0187 69.1524C92.0166 69.1403 92.0208 69.1303 92.0187 69.1182L90.9523 64.1163C92.0879 62.895 93.676 61.9047 95.6789 61.1695C96.0602 61.0288 96.3263 60.6914 96.3577 60.2997C96.3912 59.9079 96.1838 59.5343 95.8276 59.3395C93.4224 58.0137 90.9691 57.7626 88.5409 58.5982ZM89.5863 70.1588C89.2825 70.444 88.8279 70.6328 88.3376 70.681C87.8516 70.7293 87.3634 70.6288 87.0093 70.4099C86.8438 70.3074 86.561 70.0885 86.5254 69.751C86.4898 69.4175 86.7223 69.1463 86.8606 69.0158C87.1644 68.7325 87.619 68.5417 88.1093 68.4955C88.1889 68.4875 88.2685 68.4834 88.3502 68.4834C88.7546 68.4834 89.1422 68.5819 89.4397 68.7647C89.5926 68.8591 89.8377 69.06 89.9027 69.3532L89.9215 69.4416C89.9446 69.7691 89.7225 70.0322 89.5863 70.1588ZM92.641 60.2856C91.8302 60.7215 91.099 61.2096 90.4474 61.746L90.1352 60.2756C90.9712 60.1068 91.805 60.1108 92.641 60.2856Z" fill="#F3F3F3"/>
<path d="M119.062 59.1968C118.497 59.0481 117.912 59.3635 117.755 59.9059L115.821 66.5831C115.465 66.3019 115.055 66.0688 114.604 65.9001C112.635 65.1669 110.502 65.88 109.848 67.489C109.192 69.0981 110.263 71.0044 112.232 71.7396C112.758 71.9345 113.295 72.0269 113.812 72.0269C115.235 72.0269 116.509 71.3278 116.99 70.1487C116.999 70.1286 116.999 70.1065 117.007 70.0864C117.011 70.0743 117.02 70.0643 117.024 70.0522L119.802 60.4483C119.957 59.9059 119.626 59.3474 119.062 59.1968ZM115.023 69.3431L114.998 69.4295C114.763 69.9619 113.839 70.1547 113.003 69.8453C112.155 69.53 111.606 68.7727 111.828 68.2283C111.977 67.8587 112.457 67.6477 113.014 67.6477C113.28 67.6477 113.563 67.6959 113.835 67.7964C114.294 67.9671 114.679 68.2664 114.891 68.616C114.983 68.7666 115.105 69.0539 115.023 69.3431Z" fill="#F3F3F3"/>
<path d="M129.224 87.8582C128.658 87.7095 128.073 88.0249 127.916 88.5653L125.98 95.2525C125.628 94.9733 125.224 94.7342 124.765 94.5635C123.852 94.222 122.871 94.1778 122.004 94.4369C121.065 94.7182 120.336 95.3429 120.007 96.1524C119.354 97.7635 120.424 99.6698 122.394 100.401C122.915 100.596 123.458 100.694 123.99 100.694C124.388 100.694 124.782 100.638 125.155 100.528C126.006 100.272 126.668 99.7261 127.03 99.025C127.034 99.019 127.036 99.0109 127.041 99.0049C127.074 98.9386 127.12 98.8804 127.15 98.8121C127.158 98.792 127.158 98.7699 127.166 98.7498C127.17 98.7377 127.179 98.7277 127.183 98.7136L129.961 89.1096C130.118 88.5673 129.787 88.0068 129.224 87.8582ZM125.189 97.9905L125.161 98.0909C125.027 98.3902 124.707 98.5288 124.522 98.5851C124.12 98.7036 123.623 98.6775 123.165 98.5067C122.316 98.1893 121.767 97.434 121.989 96.8897C122.117 96.5763 122.45 96.4357 122.639 96.3774C122.802 96.3292 122.982 96.3051 123.169 96.3051C123.439 96.3051 123.724 96.3573 123.996 96.4578C124.801 96.7571 125.327 97.4521 125.189 97.9905Z" fill="#F3F3F3"/>
<path d="M98.2033 38.6188C100.583 38.6188 102.241 41.9875 102.241 45.0087C102.241 45.5712 102.716 46.0252 103.303 46.0252C103.889 46.0252 104.365 45.5712 104.365 45.0087C104.365 41.9855 106.024 38.6188 108.402 38.6188C108.989 38.6188 109.464 38.1648 109.464 37.6023C109.464 37.0399 108.989 36.5859 108.402 36.5859C105.752 36.5859 104.365 33.3839 104.365 30.2221C104.365 29.6596 103.889 29.2036 103.303 29.2036C102.716 29.2036 102.241 29.6596 102.241 30.2221C102.241 33.3839 100.854 36.5859 98.2033 36.5859C97.6167 36.5859 97.1411 37.0399 97.1411 37.6023C97.1411 38.1648 97.6167 38.6188 98.2033 38.6188ZM103.305 35.1255C103.833 36.1841 104.543 37.0439 105.385 37.6465C104.526 38.3114 103.824 39.2435 103.305 40.3162C102.783 39.2435 102.081 38.3114 101.224 37.6465C102.065 37.0439 102.775 36.1841 103.305 35.1255Z" fill="#F3F3F3"/>
<path d="M93.0306 13.1615C93.5523 12.0868 94.2542 11.1547 95.1111 10.4918C94.2688 9.88921 93.5607 9.02744 93.0306 7.97083C92.5006 9.02744 91.7924 9.88921 90.9502 10.4918C91.8092 11.1568 92.511 12.0888 93.0306 13.1615Z" fill="#F3F3F3"/>
<path d="M36.4653 64.1082C37.3222 64.7732 38.0241 65.7052 38.5458 66.7779C39.0674 65.7052 39.7672 64.7732 40.6262 64.1082C39.7819 63.5076 39.0737 62.6459 38.5458 61.5892C38.0157 62.6479 37.3076 63.5076 36.4653 64.1082Z" fill="#F3F3F3"/>
<path d="M25.9079 20.9436C28.288 20.9436 29.9452 24.3103 29.9452 27.3315C29.9452 27.894 30.4208 28.35 31.0074 28.35C31.594 28.35 32.0696 27.894 32.0696 27.3315C32.0696 24.3103 33.7289 20.9436 36.1069 20.9436C36.6935 20.9436 37.1691 20.4896 37.1691 19.9272C37.1691 19.3647 36.6935 18.9087 36.1069 18.9087C33.4566 18.9087 32.0696 15.7087 32.0696 12.5449C32.0696 11.9824 31.594 11.5284 31.0074 11.5284C30.4208 11.5284 29.9452 11.9824 29.9452 12.5449C29.9452 15.7067 28.5582 18.9087 25.9079 18.9087C25.3213 18.9087 24.8457 19.3647 24.8457 19.9272C24.8457 20.4896 25.3213 20.9436 25.9079 20.9436ZM31.0074 17.4503C31.5374 18.507 32.2456 19.3687 33.0878 19.9693C32.2309 20.6343 31.5291 21.5663 31.0074 22.641C30.4857 21.5663 29.7859 20.6343 28.927 19.9693C29.7692 19.3687 30.4773 18.507 31.0074 17.4503Z" fill="#F3F3F3"/>
<path d="M72.0776 76.4704L64.2524 71.1551C63.9842 70.9764 63.6469 70.9221 63.3326 71.0105C63.0184 71.1009 62.7649 71.3239 62.6475 71.6172L60.0245 78.0754C59.6976 77.76 59.3142 77.4888 58.8827 77.2779C58.0111 76.852 57.0411 76.7134 56.1486 76.8882C55.1848 77.077 54.395 77.6294 53.9843 78.4028C53.1651 79.9416 54.0283 81.9403 55.9097 82.8583C56.5361 83.1656 57.215 83.3223 57.877 83.3223C58.1368 83.3223 58.3924 83.3002 58.6459 83.25C59.6097 83.0612 60.3974 82.5088 60.8101 81.7354C60.8206 81.7153 60.8248 81.6912 60.8353 81.6711C60.8395 81.6591 60.85 81.653 60.8541 81.641L64.133 73.5677L70.1731 77.6696L67.8497 83.3886C67.5249 83.0732 67.1415 82.8021 66.7099 82.5911C65.8363 82.1673 64.8663 82.0247 63.9758 82.2014C63.0121 82.3903 62.2222 82.9427 61.8116 83.7161C60.9924 85.2548 61.8556 87.2535 63.737 88.1715C64.3634 88.4789 65.0422 88.6356 65.7022 88.6356C65.9641 88.6356 66.2197 88.6135 66.4711 88.5632C67.351 88.3905 68.0697 87.9064 68.5054 87.2375C68.5201 87.2194 68.5327 87.1953 68.5473 87.1752C68.5746 87.131 68.6123 87.0948 68.6374 87.0486C68.6458 87.0305 68.65 87.0105 68.6584 86.9924C68.6647 86.9803 68.6751 86.9683 68.6793 86.9542L72.4526 77.6656C72.6307 77.2337 72.4757 76.7396 72.0776 76.4704ZM58.9434 80.739L58.9057 80.8274C58.7423 81.1147 58.4092 81.2211 58.2185 81.2573C57.8058 81.3377 57.3155 81.2633 56.8776 81.0484C56.0668 80.6507 55.5996 79.8471 55.8762 79.3269C56.0354 79.0276 56.3832 78.9191 56.576 78.8809C56.6849 78.8608 56.798 78.8508 56.9154 78.8508C57.2422 78.8508 57.5942 78.9331 57.9189 79.0918C58.3568 79.3048 58.7088 79.6402 58.8847 80.0078C58.9602 80.1665 59.0503 80.4598 58.9434 80.739ZM66.7665 86.0543L66.7309 86.1427C66.5675 86.4299 66.2323 86.5364 66.0437 86.5725C65.6331 86.6529 65.1407 86.5786 64.7007 86.3636C63.892 85.9659 63.4248 85.1624 63.7014 84.6421C63.8627 84.3428 64.2084 84.2343 64.4011 84.1962C64.5101 84.1761 64.6232 84.166 64.7406 84.166C65.0695 84.166 65.4215 84.2484 65.7441 84.4071C66.1841 84.62 66.534 84.9535 66.7099 85.3231C66.7854 85.4798 66.8776 85.7751 66.7665 86.0543Z" fill="#F3F3F3"/>
<path d="M7.62176 103.583L5.54342 93.8162C5.42609 93.2658 4.8688 92.9102 4.29055 93.0247C3.7144 93.1352 3.34357 93.6736 3.46089 94.224L4.90651 101.012C4.45606 100.915 3.97838 100.887 3.49651 100.935C2.52438 101.03 1.62768 101.415 0.9782 102.024C0.274246 102.683 -0.0777302 103.557 0.0144542 104.419C0.104544 105.284 0.632509 106.072 1.45798 106.582C2.10117 106.98 2.88264 107.191 3.69554 107.191C3.84848 107.191 4.00143 107.185 4.15437 107.171C6.25575 106.966 7.8187 105.401 7.63642 103.683C7.63433 103.659 7.62385 103.639 7.62176 103.615C7.62176 103.603 7.62595 103.593 7.62176 103.583ZM3.94276 105.146C3.4567 105.194 2.96645 105.096 2.61238 104.875C2.44686 104.772 2.16403 104.551 2.12841 104.216C2.09279 103.882 2.32325 103.611 2.46362 103.48C2.76532 103.195 3.21996 103.006 3.71021 102.958C3.79192 102.95 3.87153 102.946 3.95114 102.946C4.35759 102.946 4.74519 103.047 5.04269 103.229C5.19354 103.324 5.43867 103.523 5.50361 103.818L5.52456 103.906C5.56647 104.483 4.83737 105.059 3.94276 105.146Z" fill="#F3F3F3"/>
</svg>
