<svg width="90" height="108" viewBox="0 0 90 108" fill="none" xmlns="http://www.w3.org/2000/svg">
<mask id="mask0_54_335" style="mask-type:luminance" maskUnits="userSpaceOnUse" x="0" y="81" width="26" height="19">
<path d="M0 81.7708H25.9132V99.993H0V81.7708Z" fill="white"/>
</mask>
<g mask="url(#mask0_54_335)">
<path d="M2.40619 99.6596H18.5173C19.1527 99.6596 19.6683 99.1492 19.6683 98.5103V96.894C19.6683 92.0971 21.8871 87.8159 25.3506 85.0311C26.0121 84.5016 25.9461 83.4495 25.1805 83.0902C23.4652 82.2846 21.5555 81.835 19.5451 81.835H13.3801C6.00862 81.835 0.034668 87.8263 0.034668 95.2134V97.2881C0.034668 98.5988 1.09543 99.6596 2.40619 99.6596Z" fill="#F3F3F3"/>
</g>
<path d="M5.94434 69.592C5.94434 75.4149 10.6527 80.1336 16.4617 80.1336C22.2707 80.1336 26.9808 75.4149 26.9808 69.592C26.9808 63.7708 22.2707 59.0503 16.4617 59.0503C10.6527 59.0503 5.94434 63.7708 5.94434 69.592Z" fill="#F3F3F3"/>
<mask id="mask1_54_335" style="mask-type:luminance" maskUnits="userSpaceOnUse" x="63" y="81" width="27" height="19">
<path d="M63.6909 81.7708H89.9999V99.993H63.6909V81.7708Z" fill="white"/>
</mask>
<g mask="url(#mask1_54_335)">
<path d="M76.6217 81.835H70.4446C68.3474 81.835 66.3526 82.328 64.5869 83.1995C63.8248 83.5728 63.6981 84.5954 64.3595 85.1353C67.7519 87.92 69.9203 92.1544 69.9203 96.894V98.5103C69.9203 99.1492 70.4359 99.6596 71.0696 99.6596H87.5974C88.9064 99.6596 89.9689 98.5988 89.9689 97.2881V95.2134C89.9689 87.8263 83.9915 81.835 76.6217 81.835Z" fill="#F3F3F3"/>
</g>
<path d="M73.5349 59.0503C67.7276 59.0503 63.0176 63.7708 63.0176 69.592C63.0176 75.4149 67.7276 80.1336 73.5349 80.1336C79.3474 80.1336 84.054 75.4149 84.054 69.592C84.054 63.7708 79.3474 59.0503 73.5349 59.0503Z" fill="#F3F3F3"/>
<mask id="mask2_54_335" style="mask-type:luminance" maskUnits="userSpaceOnUse" x="30" y="53" width="29" height="29">
<path d="M30.8022 53.6909H58.8022V81.7708H30.8022V53.6909Z" fill="white"/>
</mask>
<g mask="url(#mask2_54_335)">
<path d="M44.7937 81.3766C52.4239 81.3766 58.6044 75.1805 58.6044 67.5346C58.6044 59.8905 52.4239 53.6926 44.7937 53.6926C37.1669 53.6926 30.9829 59.8905 30.9829 67.5346C30.9829 75.1805 37.1669 81.3766 44.7937 81.3766Z" fill="#F3F3F3"/>
</g>
<mask id="mask3_54_335" style="mask-type:luminance" maskUnits="userSpaceOnUse" x="22" y="83" width="45" height="25">
<path d="M22.8022 83.5486H66.8022V107.024H22.8022V83.5486Z" fill="white"/>
</mask>
<g mask="url(#mask3_54_335)">
<path d="M23.2188 98.4618V106.906C23.2188 106.972 23.2708 107.024 23.3333 107.024H66.2535C66.316 107.024 66.368 106.972 66.368 106.906V98.4618C66.368 90.2656 59.7326 83.6163 51.5538 83.6163H38.0347C29.8524 83.6163 23.2188 90.2656 23.2188 98.4618Z" fill="#F3F3F3"/>
</g>
<mask id="mask4_54_335" style="mask-type:luminance" maskUnits="userSpaceOnUse" x="14" y="0" width="62" height="39">
<path d="M14.8022 0H75.2467V38.2153H14.8022V0Z" fill="white"/>
</mask>
<g mask="url(#mask4_54_335)">
<path fill-rule="evenodd" clip-rule="evenodd" d="M15.0366 3.25689C15.0366 1.52078 16.4481 0.112793 18.1894 0.112793H71.7797C73.5192 0.112793 74.9307 1.52078 74.9307 3.25689V34.6926C74.9307 36.4288 73.5192 37.835 71.7797 37.835H18.1894C16.4481 37.835 15.0366 36.4288 15.0366 34.6926V3.25689ZM21.3422 6.39925V31.5485H68.6269V6.39925H21.3422Z" fill="#F3F3F3"/>
</g>
<mask id="mask5_54_335" style="mask-type:luminance" maskUnits="userSpaceOnUse" x="10" y="31" width="70" height="23">
<path d="M10.3071 31.5486H79.6908V53.6666H10.3071V31.5486Z" fill="white"/>
</mask>
<g mask="url(#mask5_54_335)">
<path fill-rule="evenodd" clip-rule="evenodd" d="M15.1702 33.7882C15.5696 32.4583 16.797 31.5486 18.1893 31.5486H71.7796C73.1702 31.5486 74.3977 32.4583 74.7987 33.7882L79.5261 49.5069C79.8126 50.4583 79.632 51.4895 79.0366 52.2864C78.4411 53.0833 77.5036 53.5538 76.507 53.5538H13.4602C12.4636 53.5538 11.5261 53.0833 10.9307 52.2864C10.3369 51.4895 10.1546 50.4583 10.4411 49.5069L15.1702 33.7882ZM37.1025 45.6944H52.8647V39.408H37.1025V45.6944Z" fill="#F3F3F3"/>
</g>
</svg>
